<?xml version="1.0" encoding="UTF-8"?>
<svg id="_레이어_2" data-name="레이어 2" xmlns="http://www.w3.org/2000/svg" viewBox="0 0 414.71 326.95">
  <defs>
    <style>
      .cls-1 {
        fill: #fff;
      }

      .cls-2 {
        fill: #fefefe;
      }

      .cls-3 {
        fill: #35d22f;
      }
    </style>
  </defs>
  <g id="_레이어_1_이미지" data-name="레이어 1 이미지">
    <g>
      <path class="cls-3" d="M178.79,180.89v-3.48c0-1.36,1.61-4.53,2.63-5.53,3.61-3.52,13.02-3.35,17.88-3.48,9.47-.25,18.98.21,28.45,0-.57-1.67-6.87-11.59-6-12.47,6.06.06,11.91,2.19,17.83,3.31,4.15-1.53,8.25-3.25,12.47-4.57,1.48-.46,8.54-2.67,9.51-2.06.82,2.91-1.13,6.52-2.4,9.17-3.37,7.03-7.92,13.48-11.53,20.38-.6,1.15-2.11,3.77-2.3,4.9-.5,2.95.25,6.85-.06,9.9,5.93.09,6.61,8.27.85,9.6-6.26-.44-13.29.57-19.46,0-1-.09-2.51-1.01-2.51-2.05v-10.91h-23.76v3.36c4.23-.24,6.34,4.76,3.73,7.92-1.09,1.32-2.44,1.56-4.08,1.68-6.31.47-13.26-.32-19.63-.07-3.49-.5-2.36-3.2-2.33-5.56.05-4.12-.06-8.24-.01-12.36-15.31,4.87-33.16,2.41-46.29-6.86-9.96-7.03-17.21-18.95-14.55-31.51,3.86-18.25,30.45-19.68,35.57-1.49,1.13,4.01.88,8.2,1.87,12.28,2.9,12,11.83,19.21,24.12,19.91ZM244.01,162.22c-2.19.4-2.2,4.16.64,3.8,2.62-.33,1.56-4.19-.64-3.8Z"/>
      <path class="cls-3" d="M168.23,29.43c-5.33-3.04-10.73-7.17-13.78-12.61-1.44-2.57-.54-2.55.62-4.98,7.2,1.07,16.6.43,21.04-6.2.36-.54,1.19-2.56,1.3-2.66.11-.11,2.77-1.16,3.01-1.21,1.01-.19,3.36,1.56,4.53,2.08,5.97,2.67,11.81,2.54,17-1.65.55-.44,1.62-1.83,2.05-2.03s4.34-.23,4.87-.08c.45.14,1.46,1.45,1.98,1.86,5.17,4.13,10.44,4.69,16.6,2.21,1.17-.47,4.29-2.51,5.17-2.4.25.03,2.89,1.1,3.01,1.22.28.27,1.3,2.54,1.88,3.28,3.79,4.82,10.4,6.32,16.3,6.01.82-.04,3.73-.66,4.21-.36.15.09,1.65,2.82,1.62,3.09-.05.6-2.21,3.78-2.73,4.46-3.2,4.2-7.49,7.47-12.1,9.97v4.92h5.16s.36.33.36.36v4.08c0,.26-.58,1.29-.87,1.53-1.85,1.48-4.12.03-4.42,3.5-.2,2.32.84,8.18-.7,9.85-.21.22-1.37.83-1.57.83h-23.64v-3.96c0-4.36-4.42-10.56-8.48-12.15-9.93-3.9-17.86,7.09-16.48,16.11h-23.64c-1.37,0-2.28-1.6-2.46-2.82-.3-2.09.4-8.1-.19-9.41-.54-1.2-3.81-1.13-4.64-2.55-.09-.16-.51-1.32-.51-1.41v-3.6s.33-.36.36-.36h5.16v-4.92Z"/>
      <path class="cls-3" d="M216.47,74.4c.4.42,2.13-2.02,2.39-2.28,2.43-2.51,7.64-7.18,11.16-7.55,1.92-.2,3.38.15,4.3,1.94,2.41,4.67-1.15,13.8-2.97,18.44,4.76-1.82,9.5-3.47,14.69-2.57,8.69,1.51,12.32,11.14,5.34,17.19-7.45,6.46-17.68.72-26.36,1.95s-14.52,8.49-23.49,5.19c-4.62-1.7-7.98-4.42-13.29-5.19-8.32-1.21-17.08,3.74-24.73-.71-8.8-5.11-6.36-16.67,3.46-18.45,4.4-.79,9.2.39,13.26,2.1-1.02-3.77-2.8-7.44-3.11-11.4-1-12.51,7.84-8.08,13.68-2.88,1.26,1.12,3.13,3.67,4.19,4.45.21.15.25.32.61.23.83-4.74,2.13-10.06,4.61-14.22,8.29-13.94,15.52,6.54,16.27,13.74Z"/>
      <path class="cls-3" d="M145.84,102.16c-.13.17-.56.26-.78.53-1.63,2.06-.85,4.27-4.3,4.58-.85.08-2.01.02-2.89-.01-1.95-.08-3.59-1.31-4.63.9-2.2,4.67.3,4.11,3.32,5.69,3.99,2.09,7.69,5.25,10.17,9.03.76,1.15,3.65,6.35,2.06,7.31-.36.22-6.56-2.14-7.68-2.42-10.76-2.67-21.44-.13-30,6.71-.63.5-2.87,2.88-3.43,2.73-.97-.25-1.52-3.04-1.61-3.93-.68-7.44,1.89-15.44,6.72-21.1,2.02-2.36,5.82-4.72,5.16-8.29-.22-1.18-.45-2.31-1.75-1.72-.71.33-3.54,3.21-4.26,2.22-.36-.51-.88-4.94-1.38-6.3-2.45-6.65-7.26-10.53-6.9-18.76.99-22.5,30.44-26.09,43.68-11.28,1.21,1.35,4.03,5.45,3.97,7.2-.02.54-.69,1.05-.8,1.5-.26,1.01-.16,2.84-.41,4.15-.55,2.91-3.4,7.6-2.1,10.24.41.84,1.86,1.5,1.69,2.53-.18,1.12-2.07,1.65-2.32,2.51-.32,1.1.84,1.75.64,2.77-.14.75-1.27,1.49-1.75,2.11-.23.3-.2.8-.45,1.12Z"/>
      <path class="cls-3" d="M192.95,127.16c6.95-2.93,14.06-5.99,21.72-6.47,9.42-.6,16.93,2.15,25.67,2.41,4.78.14,9.4-1.25,13.75-3.08,1.98-.23.92,2.85.66,4.03-2.61,12.04-11.9,17.92-23.11,21.04-9.34,2.59-19.32,3.26-28.85,1.27l.16.73,10.88,7.07c.11.51-.89.79-1.25.91-10.87,3.46-27.41-1.47-36.65-7.65-9.27-6.2-14.15-16.16-17.03-26.65l.36-.51c3.56.12,6.86.47,10.41-.15,4.73-.82,8.88-3.38,13.44-4.56,4.86-1.26,10.04-1.1,14.92-.05s5.05,1.58,1.76,5.44c-1.87,2.19-4.29,3.56-6.34,5.42-.27.24-.6.35-.5.82ZM192.59,127.16v.24c.16-.08.16-.16,0-.24Z"/>
      <path class="cls-3" d="M297.83,124.29c1.46-5.09,1.9-10.82,3.48-15.83.85-2.68,1.9-5.11,5.27-4.54,1.93.33,3.25,3.42,3.8,5.07,4.7,14.06-.4,37.38-7.56,50.15-6.68,11.91-20.96,24.26-34.27,27.87-3.54.96-12.29,2.36-9.65-4.12,1.62-3.96,10.12-10.6,13.49-13.86,4.97-4.82,9.68-9.92,13.67-15.6.08-.53-.07-.28-.36-.35-7.69-1.78-23.92-10.4-23.87-19.55.04-7.98,14.03-5.13,18.48-3-.76-2.13-2.15-4.05-3.08-6.15-2.09-4.66-5.05-13.87-2.63-18.63,1.38-2.71,3.91-2.8,6.52-1.81,5.43,2.06,10.95,9.69,13.64,14.67.85,1.57,1.58,3.94,2.42,5.26.19.3.22.51.66.42Z"/>
      <path class="cls-3" d="M276.95,28.59c.08.12,1.98.92,2.47,1.24,18.57,12.31,30.96,37.73,33.04,59.56.13,1.33.69,6-.25,6.7-1.04.78-2.41.14-3.46.12-7.45-.12-15.76.56-23.06.02-3.06-.23-5.74-1.49-5.88-4.94-.22-5.35,5.07-4.93,8.89-5.26l-10.2-18.11-3.45,21.01c-.75.94-9.62.97-11.18.81-6.51-.66-6.67-10.96.49-11.04.79,0,1.65.43,2.51.25v-36.69h-3.72c-.57,0-2.42-.36-3.05-.55-5.15-1.53-2.75-7.29-.77-10.46.31-.51,2.26-2.83,2.26-3.02v-3.6c0-1.22,3.4.83,3.96.86,1.21.05,2.77-.66,4.57-.5.95.08,2.28.72,2.88.7.46,0,3.96-2.28,3.96-1.06,0,.6-.11,3.79,0,3.96ZM268.01,29.59c-2.07.37-1.47,3.44.65,3.08,1.75-.3,1.36-3.44-.65-3.08Z"/>
      <path class="cls-3" d="M150.59,41.3c5.9.7,8.74,6.24,5.69,11.44-2.78,4.74-10.15,3.82-14.57,2.24-5.95-2.12-9.12-4.51-16.05-3.81-2.37.24-4.84,1.53-7.22,1.66-2.92.16-3.77-1.71-2.15-4.07,3.05-4.43,8.1-9.19,11.61-13.58,3.32-4.14,8.22-12.47,13.14-14.21,1.48-.52,4.36-1.05,4.82,1.08.56,2.59-3.76,6.75-5.23,8.7,3.81-1.42,12.36-5.91,15.32-1.28s-1.68,8.45-5.56,9.96l-5.2,1.88c1.72.15,3.72-.2,5.4,0Z"/>
      <path class="cls-2" d="M192.59,127.16c.16.08.16.16,0,.24v-.24Z"/>
    </g>
    <g>
      <path class="cls-1" d="M93.35,280.42v8.39h-16.08v5.04h8.88v21.11h-17.76v3.72s.33.36.36.36h17.4v7.91h-26.16v-20.39h17.76v-4.32h-17.76v-8.39h8.88v-5.04h-16.08v-8.39h40.56Z"/>
      <path class="cls-1" d="M181.19,254.28v21.35h-17.4s-.36.33-.36.36v4.44h18.96v8.39h-27.36v-21.35h17.76v-4.8h-17.76v-8.39h26.16Z"/>
      <polygon class="cls-1" points="297.35 250.44 297.35 260.99 303.59 260.99 303.59 250.44 311.99 250.44 311.99 288.81 303.59 288.81 303.59 269.39 297.35 269.39 297.35 288.81 288.95 288.81 288.95 250.44 297.35 250.44"/>
      <path class="cls-1" d="M109.85,258.9c22.12-2.77,23.01,30.38,2.09,29.93-18.53-.4-19.45-27.76-2.09-29.93ZM111.05,267.29c-7.68,1.13-6.81,13.26,1.37,13.13,8.8-.14,8.43-14.57-1.37-13.13Z"/>
      <path class="cls-1" d="M215.69,258.9c21.27-2.67,23.4,28.67,3.3,29.91s-21.41-27.64-3.3-29.91ZM216.89,267.29c-8.84,1.3-5.78,15.61,3.18,12.77,7.55-2.39,5.23-14-3.18-12.77Z"/>
      <path class="cls-1" d="M350.31,298.01c6.88,6.94,5.22,18.97-3.36,23.7-11.66,6.43-25.02-4-21.93-16.88,2.69-11.21,17.16-15.02,25.28-6.82ZM338.57,302.07c-8.26,1.17-6.82,14.05,1.83,13.1,8.4-.92,7.11-14.37-1.83-13.1Z"/>
      <polygon class="cls-1" points="283.19 260.99 283.19 269.15 264.95 269.15 264.95 280.42 283.19 280.42 283.19 288.81 256.55 288.81 256.55 260.99 283.19 260.99"/>
      <path class="cls-1" d="M62.96,273.14c-6.72-6.87-4.93-17.56,3.09-22.47,2.92-1.79,9.8-2.09,13.03-.72,8.32,3.52,10.97,14.92,5.39,21.95-5.27,6.63-15.53,7.35-21.51,1.24ZM72.17,257.22c-7.46,1.05-6.06,13.05,2.28,11.63,7.01-1.19,5.76-12.77-2.28-11.63Z"/>
      <path class="cls-1" d="M376.02,249.79c2.15-.24,9.21-.35,11.02.36,7.86,3.08,10.13,14.22,5.54,20.99-8.89,13.13-29.94,3.81-25.57-12.12,1.02-3.71,5.03-8.78,9-9.23ZM379.61,257.21c-2.13.36-4.31,2.55-4.68,4.68-1.1,6.4,7.27,9.82,10.8,4.32,2.83-4.41-1.07-9.86-6.12-8.99Z"/>
      <polygon class="cls-1" points="340.55 266.75 340.55 280.42 359.27 280.42 359.27 288.81 318.71 288.81 318.71 280.42 332.15 280.42 332.15 266.75 340.55 266.75"/>
      <path class="cls-1" d="M20.39,254.04v15.95l12,11.99-5.88,5.87-10.53-10.29-10.35,10.06c-.35,0-4.59-4.21-5.04-4.8-.28-.37-.69-.76-.56-1.27l11.97-11.8v-15.71h8.4Z"/>
      <polygon class="cls-1" points="414.71 250.44 414.71 293.37 406.55 293.37 406.55 276.34 398.15 276.34 398.15 267.95 406.55 267.95 406.55 250.44 414.71 250.44"/>
      <polygon class="cls-1" points="146.87 250.44 146.87 288.81 138.47 288.81 138.47 269.39 128.39 269.39 128.39 260.99 138.47 260.99 138.47 250.44 146.87 250.44"/>
      <polygon class="cls-1" points="46.31 250.44 46.31 288.81 37.91 288.81 37.91 269.15 28.07 269.15 28.07 260.99 37.91 260.99 37.91 250.44 46.31 250.44"/>
      <polygon class="cls-1" points="356.15 250.44 356.15 274.18 347.75 274.18 347.75 258.59 324.71 258.59 324.71 250.44 356.15 250.44"/>
      <polygon class="cls-1" points="399.11 280.42 399.11 288.81 383.27 288.81 383.27 299.61 374.87 299.61 374.87 288.81 366.23 288.81 366.23 280.42 399.11 280.42"/>
      <polygon class="cls-1" points="179.03 295.05 179.03 310.4 197.03 310.4 197.03 318.79 170.63 318.79 170.63 295.05 179.03 295.05"/>
      <polygon class="cls-1" points="397.43 295.05 397.43 310.4 414.71 310.4 414.71 318.79 389.03 318.79 389.03 295.05 397.43 295.05"/>
      <path class="cls-1" d="M247.67,250.44v38.37h-8.4v-38.37c2.12-.16,4.24.05,6.37.01.71-.01,1.28-.39,2.03-.01Z"/>
      <rect class="cls-1" x="188.63" y="250.44" width="8.4" height="38.37"/>
    </g>
  </g>
</svg>